<svg xmlns="http://www.w3.org/2000/svg" viewBox="0 0 256 256"><path d="M251.2 117.6L138.4 4.8c-6.4-6.4-16.8-6.4-23.2 0l-23.4 23.4 29.5 29.5c6.9-2.3 14.8-.8 20.3 4.7 5.5 5.5 7 13.5 4.6 20.4l28.4 28.4c6.9-2.4 14.9-.9 20.4 4.6 7.7 7.7 7.7 20.2 0 27.9s-20.2 7.7-27.9 0c-5.8-5.8-7.1-14.4-4.1-21.5l-26.5-26.5v69.7c1.9.9 3.6 2.1 5.2 3.7 7.7 7.7 7.7 20.2 0 27.9s-20.2 7.7-27.9 0-7.7-20.2 0-27.9c2-2 4.3-3.4 6.7-4.3v-70.3c-2.4-.9-4.7-2.3-6.7-4.3-5.9-5.9-7.2-14.6-4-21.7L81.4 38.3 4.8 115.2c-6.4 6.4-6.4 16.8 0 23.2L117.6 251c6.4 6.4 16.8 6.4 23.2 0l110.4-110.1c6.4-6.4 6.4-16.9 0-23.3" fill="#F05032"/></svg>
