<svg xmlns="http://www.w3.org/2000/svg" viewBox="0 0 256 256"><rect width="256" height="256" rx="28" fill="#F7DF1E"/><path d="M67.3 213.9l19.1-11.6c3.7 6.5 7 12 15.1 12 7.7 0 12.6-3 12.6-14.8v-80h23.5v80.5c0 24.4-14.3 35.5-35.2 35.5-18.9 0-29.8-9.8-35.1-21.6m83.2-2.6l19.1-11.1c5.1 8.3 11.7 14.4 23.4 14.4 9.8 0 16.1-4.9 16.1-11.7 0-8.1-6.4-11-17.3-15.7l-5.9-2.5c-17.1-7.3-28.5-16.4-28.5-35.7 0-17.8 13.5-31.3 34.7-31.3 15.1 0 25.9 5.2 33.7 19l-18.5 11.8c-4.1-7.3-8.5-10.1-15.3-10.1-7 0-11.4 4.4-11.4 10.1 0 7.1 4.4 10 14.6 14.3l5.9 2.5c20.2 8.7 31.6 17.5 31.6 37.3 0 21.4-16.8 33.1-39.4 33.1-22.1 0-36.3-10.5-43.3-24.3" fill="#000"/></svg>
