<svg xmlns="http://www.w3.org/2000/svg" viewBox="0 0 256 289"><path d="M128 288.5c-3.5 0-6.9-.9-10-2.7L85.2 265c-4.7-2.6-2.4-3.6-.9-4.1 7-2.4 8.4-3 15.8-7.2.8-.4 1.8-.3 2.6.2l24.8 14.7c.9.5 2.2.5 3.1 0l96.7-55.8c.9-.5 1.5-1.6 1.5-2.7V97.8c0-1.1-.6-2.2-1.6-2.7l-96.6-55.8c-.9-.5-2.2-.5-3.1 0L30.9 95.1c-1 .6-1.6 1.6-1.6 2.7v112.3c0 1.1.6 2.1 1.6 2.7l26.5 15.3c14.4 7.2 23.2-1.3 23.2-9.8V106.6c0-1.6 1.3-2.8 2.8-2.8h12.4c1.5 0 2.8 1.3 2.8 2.8v111.7c0 19.2-10.5 30.2-28.7 30.2-5.6 0-10 0-22.3-6.1l-25.4-14.6C15 223.7 10 216.3 10 208.2V95.8c0-8 5-15.5 12.2-19.5L119 20.5c7-3.9 16.2-3.9 23.1 0l96.7 55.8c7.2 4 12.2 11.5 12.2 19.5v112.4c0 8-5 15.5-12.2 19.5L142 283.5c-3.9 2.3-8.8 3-14 3z" fill="#539E43"/></svg>
