<svg xmlns="http://www.w3.org/2000/svg" viewBox="0 0 256 255"><defs><linearGradient id="pa" x1="12.96%" y1="12.04%" x2="79.64%" y2="78.01%"><stop offset="0" stop-color="#387EB8"/><stop offset="1" stop-color="#366994"/></linearGradient><linearGradient id="pb" x1="19.13%" y1="20.58%" x2="90.43%" y2="88.29%"><stop offset="0" stop-color="#FFC836"/><stop offset="1" stop-color="#FFD43B"/></linearGradient></defs><path d="M126.9.1C62.3.1 66.3 28.2 66.3 28.2l.1 29.2h61.6v8.8H40.2S0 61.5 0 126.9c0 65.3 35.1 63 35.1 63h20.9v-30.3s-1.1-35.1 34.5-35.1h59.4s33.4.5 33.4-32.3V33.5S189 .1 126.9.1zm-33 19.2c5.9 0 10.7 4.8 10.7 10.7s-4.8 10.7-10.7 10.7-10.7-4.8-10.7-10.7 4.8-10.7 10.7-10.7z" fill="url(#pa)"/><path d="M128.8 254.1c64.6 0 60.6-28.2 60.6-28.2l-.1-29.2h-61.6v-8.8h87.8s40.2 4.6 40.2-60.9c0-65.3-35.1-63-35.1-63h-20.9v30.3s1.1 35.1-34.5 35.1h-59.4s-33.4-.5-33.4 32.3v58.7s-5.1 33.7 56.4 33.7zm33-19.2c-5.9 0-10.7-4.8-10.7-10.7s4.8-10.7 10.7-10.7 10.7 4.8 10.7 10.7-4.8 10.7-10.7 10.7z" fill="url(#pb)"/></svg>
