<svg xmlns="http://www.w3.org/2000/svg" viewBox="0 0 256 228"><path d="M210.5 113.9c0-10.8-13.8-21.1-35-27.5 4.9-21.6 2.7-38.8-7-44.4-2.2-1.3-4.8-1.9-7.7-1.9v7.7c1.6 0 2.8.3 3.9.9 4.6 2.7 6.6 13.2 5.1 26.6-.4 3.3-.9 6.8-1.7 10.4-6.8-1.7-14.2-3-22.1-3.9-4.7-6.4-9.6-12.3-14.6-17.6 11.4-10.6 22.2-16.4 29.5-16.4V40c-9.7 0-22.4 7-35.3 19.1C112.8 47.1 100.2 40.4 90.5 40.4v7.7c7.3 0 18.1 5.8 29.5 16.2-4.9 5.3-9.8 11.1-14.4 17.5-7.9.9-15.3 2.2-22.2 3.9-.8-3.5-1.3-6.8-1.7-10.1-1.5-13.4.4-23.9 5-26.6 1-.6 2.4-.9 4-.9V40c-3 0-5.6.6-7.8 1.9-9.6 5.6-11.8 22.7-6.8 44.1-21.1 6.5-34.7 16.7-34.7 27.5 0 10.8 13.8 21.1 35 27.5-4.9 21.6-2.7 38.8 7 44.4 2.2 1.3 4.9 1.9 7.8 1.9 9.7 0 22.4-7 35.3-19.1 12.9 12 25.6 18.8 35.3 18.8 3 0 5.6-.6 7.8-1.9 9.6-5.6 11.8-22.7 6.8-44.1 21-6.4 34.6-16.6 34.6-27.5z" fill="#61DAFB"/><circle cx="128" cy="113.9" r="20.5" fill="#61DAFB"/></svg>
