<svg xmlns="http://www.w3.org/2000/svg" viewBox="0 0 256 256"><rect width="256" height="256" rx="28" fill="#3178C6"/><path d="M150.5 200.5v27.3c4.4 2.3 9.7 4 15.7 5.1 6 1.2 12.4 1.8 19.2 1.8 6.6 0 12.8-.7 18.7-2.1 5.9-1.4 11-3.7 15.4-6.9 4.4-3.2 7.9-7.3 10.4-12.4 2.5-5.1 3.8-11.2 3.8-18.5 0-5.2-.8-9.8-2.4-13.7-1.6-3.9-3.8-7.4-6.7-10.4-2.9-3-6.3-5.7-10.2-8.1-3.9-2.4-8.2-4.6-12.8-6.7-3.4-1.5-6.5-3-9.2-4.4-2.8-1.4-5.1-2.9-7.1-4.3-2-1.5-3.5-3-4.6-4.7-1.1-1.7-1.6-3.6-1.6-5.7 0-2 .5-3.7 1.4-5.3.9-1.5 2.2-2.8 3.9-3.9 1.7-1 3.7-1.8 6-2.3 2.4-.5 4.9-.8 7.7-.8 1.9 0 3.9.1 6.1.4 2.2.3 4.3.7 6.5 1.3 2.2.6 4.3 1.4 6.3 2.4 2 1 3.9 2.1 5.5 3.5v-25.2c-3.7-1.5-7.8-2.6-12.2-3.3-4.5-.7-9.5-1.1-15.2-1.1-6.6 0-12.8.7-18.6 2.2-5.8 1.5-10.8 3.8-15.1 6.9-4.3 3.2-7.7 7.1-10.1 11.9-2.5 4.8-3.7 10.4-3.7 16.8 0 8.8 2.5 16.2 7.4 22.2 4.9 6 12.3 11 22 15l.2.1c3.5 1.5 6.7 3 9.6 4.4 2.9 1.4 5.4 2.9 7.4 4.4 2.1 1.5 3.7 3.1 4.8 4.9 1.1 1.8 1.7 3.8 1.7 6.2 0 1.9-.4 3.5-1.3 5-.9 1.5-2.1 2.8-3.8 3.8-1.6 1.1-3.6 1.9-5.9 2.4-2.3.5-4.9.8-7.8.8-5.1 0-10.2-1-15.4-2.9-5.2-1.9-10-4.9-14.5-9zM108.5 130H74.8v104.5h-24V130H17v-20.5h91.5V130z" fill="#fff"/></svg>
